<svg width="284" height="53" viewBox="0 0 284 53" fill="none" xmlns="http://www.w3.org/2000/svg">
<path d="M37.8527 26.9174L16.1301 48.64C15.1485 49.6216 15.8393 51.3121 17.239 51.3121H60.2479C61.6295 51.3121 62.3384 49.6398 61.3568 48.6582L40.0705 26.9356C39.4706 26.3175 38.4708 26.3175 37.8527 26.9174Z" fill="#D3F702"/>
<path d="M20.3894 37.6854H1.3276C0.13925 37.6854 -0.454927 36.224 0.41225 35.405L20.4537 16.0541C21.0318 15.4921 21.8026 15.1709 22.6216 15.1709H41.6192C42.7433 15.1709 43.3054 16.5359 42.5025 17.3228L23.1676 36.5291C22.4289 37.2679 21.4333 37.6854 20.3894 37.6854Z" fill="#D3F702"/>
<path d="M77.2412 52.5023V16.5088H81.7524V48.4711L80.1687 47.7512L106.18 16.5088H111.171L81.1765 52.5023H77.2412ZM94.3261 33.9297L97.3496 30.4263L111.747 52.5023H106.516L94.3261 33.9297Z" fill="white"/>
<path d="M132.202 26.6225H136.184V52.5023H132.202V47.7743C131.555 49.6157 128.818 53 123.194 53C118.068 53 113.888 50.213 113.888 42.5983V26.6225H117.869V41.7523C117.869 46.6794 119.959 49.6157 124.588 49.6157C129.167 49.6157 132.202 46.6794 132.202 41.7523V26.6225Z" fill="white"/>
<path d="M153.179 26.4235C153.826 26.4235 154.523 26.4732 155.12 26.6723V30.0566C154.473 29.957 153.876 29.9073 153.229 29.9073C148.003 29.9073 144.917 33.3413 144.917 38.8657V52.5023H140.936V26.6225H144.917V32.3957H145.017C145.714 29.7082 148.152 26.4235 153.179 26.4235Z" fill="white"/>
<path d="M158.118 52.5023V17.6641H162.099V52.5023H158.118Z" fill="white"/>
<path d="M181.972 53C172.268 53 165.897 46.4803 165.897 35.0832C165.897 23.7359 172.268 17.2162 181.972 17.2162C189.587 17.2162 195.559 20.9987 196.356 29.2603H189.985C188.841 24.8309 185.954 22.8899 181.972 22.8899C175.652 22.8899 172.616 27.817 172.616 35.0832C172.616 42.3495 175.552 47.3264 181.972 47.3264C185.854 47.3264 188.841 45.3854 189.985 40.9062H196.356C195.559 49.2176 189.587 53 181.972 53Z" fill="white"/>
<path d="M199.524 52.5023V17.6641H205.895V52.5023H199.524Z" fill="white"/>
<path d="M227.96 26.6225H234.33V52.5023H227.96V47.1771H227.711C227.213 49.4167 224.725 53 219.25 53C214.223 53 210.242 49.9144 210.242 42.897V26.6225H216.612V41.4039C216.612 45.6342 218.454 47.7245 221.938 47.7245C225.372 47.7245 227.96 45.6342 227.96 41.4039V26.6225Z" fill="white"/>
<path d="M253.034 26.1248C258.608 26.1248 264.431 30.1064 264.431 39.5624C264.431 49.0185 258.608 53 253.034 53C249.252 53 246.266 51.2084 245.021 48.7697V52.5023H238.651V17.6641H245.021V30.3552C246.266 27.9165 249.252 26.1248 253.034 26.1248ZM251.541 47.6748C255.125 47.6748 258.459 45.1366 258.459 39.5624C258.459 33.9883 255.125 31.4501 251.541 31.4501C248.057 31.4501 244.723 33.9883 244.723 39.5624C244.723 45.1366 248.057 47.6748 251.541 47.6748Z" fill="white"/>
<path d="M262.411 31.6542L234.624 19.0498L259.976 0L262.411 31.6542Z" fill="#F43131"/>
<path d="M269.432 16.7581L251.671 6.3022L259.978 0L269.432 16.7581Z" fill="#F43131"/>
<path d="M251.671 6.30273L260.838 11.7455L261.268 15.8993L251.671 6.30273Z" fill="url(#paint0_linear_284_1294)"/>
<g filter="url(#filter0_g_284_1294)">
<rect width="32.3704" height="6.58866" rx="1.14585" transform="matrix(-0.89836 -0.43926 -0.43926 0.89836 265.707 27.541)" fill="white"/>
</g>
<g filter="url(#filter1_g_284_1294)">
<circle cx="2.86464" cy="2.86464" r="2.86464" transform="matrix(-1 0 0 1 272.581 14.7529)" fill="white"/>
</g>
<path d="M283.047 48.8306C283.025 48.7913 282.993 48.7588 282.954 48.737L282.544 48.4969L282.655 48.4681C282.688 48.46 282.719 48.4454 282.746 48.4251C282.773 48.4049 282.796 48.3794 282.813 48.3501C282.83 48.3208 282.841 48.2884 282.846 48.2547C282.851 48.221 282.849 48.1866 282.84 48.1537C282.837 48.1311 282.828 48.1098 282.814 48.0913C282.789 48.0418 282.747 48.0027 282.697 47.9808C282.646 47.9589 282.59 47.9555 282.537 47.9712L281.905 48.1249L281.208 47.7216L282.214 47.4815C282.28 47.4646 282.337 47.4224 282.373 47.3639C282.391 47.3352 282.402 47.303 282.407 47.2695C282.411 47.236 282.408 47.2019 282.399 47.1694C282.393 47.146 282.384 47.1234 282.373 47.1022C282.345 47.0546 282.303 47.0173 282.252 46.9957C282.202 46.9741 282.146 46.9693 282.093 46.9822L280.569 47.3615L279.831 46.9342L281.236 46.31C281.298 46.2826 281.346 46.2317 281.371 46.1684C281.396 46.105 281.395 46.0343 281.369 45.9716L281.355 45.9452C281.324 45.8906 281.274 45.8496 281.215 45.8301C281.156 45.8106 281.091 45.8139 281.035 45.8395L279.286 46.6173L278.787 46.3293L280.686 45.4603C280.731 45.4392 280.769 45.4052 280.795 45.3625C280.821 45.3199 280.834 45.2704 280.833 45.2202C280.833 45.1763 280.822 45.1331 280.8 45.0954C280.773 45.0478 280.732 45.0099 280.683 44.9873L278.768 44.1327L279.264 43.8399L281.018 44.6057C281.049 44.6187 281.082 44.6255 281.115 44.6255C281.149 44.6255 281.182 44.6187 281.212 44.6057C281.243 44.5941 281.272 44.5762 281.295 44.5531C281.319 44.53 281.338 44.5021 281.35 44.4712C281.364 44.4404 281.371 44.4071 281.372 44.3733C281.373 44.3394 281.367 44.3058 281.355 44.2743C281.343 44.2427 281.325 44.214 281.301 44.1897C281.278 44.1654 281.25 44.146 281.22 44.1327L279.81 43.5158L280.543 43.0861L282.072 43.4534C282.104 43.463 282.138 43.4657 282.171 43.4611C282.204 43.4566 282.236 43.445 282.264 43.4271C282.293 43.4092 282.317 43.3853 282.336 43.3572C282.355 43.329 282.367 43.2972 282.373 43.2637C282.382 43.232 282.384 43.1988 282.379 43.1662C282.375 43.1336 282.364 43.1022 282.347 43.0741C282.33 43.0434 282.307 43.0168 282.279 42.996C282.251 42.9753 282.219 42.961 282.185 42.9541L281.179 42.714L281.875 42.3035L282.506 42.4548C282.571 42.4707 282.64 42.4596 282.698 42.424C282.755 42.3885 282.796 42.3313 282.812 42.2651C282.827 42.2013 282.816 42.1343 282.783 42.0779C282.767 42.0472 282.744 42.0205 282.716 41.9998C282.688 41.9791 282.656 41.9647 282.622 41.9578L282.511 41.929L282.919 41.689C282.977 41.6553 283.019 41.6002 283.037 41.5354C283.044 41.5013 283.044 41.4662 283.037 41.4321C283.032 41.399 283.021 41.3672 283.004 41.3385C282.988 41.3091 282.966 41.2834 282.939 41.2627C282.913 41.2421 282.883 41.227 282.85 41.2183C282.818 41.2096 282.784 41.2074 282.751 41.212C282.718 41.2166 282.686 41.2277 282.658 41.2449L282.25 41.4849L282.28 41.3721C282.291 41.3405 282.294 41.3071 282.291 41.2741C282.288 41.241 282.278 41.209 282.261 41.1801C282.246 41.1495 282.225 41.1226 282.199 41.1011C282.173 41.0796 282.142 41.0639 282.11 41.0552C282.078 41.0446 282.045 41.0409 282.011 41.0442C281.978 41.0475 281.946 41.0578 281.917 41.0744C281.888 41.0904 281.861 41.1122 281.84 41.1386C281.819 41.165 281.803 41.1954 281.794 41.2281L281.614 41.8594L280.918 42.2675L281.208 41.2617C281.222 41.2128 281.221 41.1608 281.206 41.1123C281.19 41.0639 281.161 41.0211 281.122 40.9895C281.082 40.9578 281.034 40.9388 280.984 40.9347C280.934 40.9306 280.884 40.9416 280.84 40.9664C280.811 40.9819 280.785 41.0034 280.765 41.0294C280.744 41.0555 280.73 41.0855 280.721 41.1177L280.28 42.642L279.549 43.0741L279.715 41.5305C279.722 41.4754 279.711 41.4194 279.682 41.3721C279.662 41.3379 279.634 41.3088 279.601 41.2871C279.568 41.2654 279.531 41.2518 279.492 41.2473C279.459 41.2425 279.425 41.245 279.392 41.2545C279.36 41.264 279.33 41.2804 279.305 41.3025C279.278 41.3228 279.256 41.3485 279.24 41.3778C279.224 41.4072 279.215 41.4396 279.212 41.4729L279.003 43.3934L278.505 43.6838L278.716 41.581C278.724 41.5269 278.713 41.4719 278.685 41.4249C278.662 41.3851 278.63 41.352 278.59 41.3289C278.548 41.3039 278.499 41.292 278.45 41.2946C278.402 41.2971 278.354 41.3141 278.315 41.3433L276.625 42.594V42.0131L278.156 40.8608C278.208 40.8268 278.245 40.7736 278.258 40.7127C278.272 40.6517 278.262 40.5877 278.23 40.5343C278.224 40.5219 278.218 40.5099 278.211 40.4983C278.171 40.4477 278.114 40.4137 278.051 40.4026C277.988 40.3915 277.923 40.4042 277.869 40.4383L276.623 41.3745V40.5151L277.7 39.3628C277.737 39.3223 277.761 39.271 277.767 39.2162C277.773 39.1615 277.762 39.1061 277.736 39.058C277.723 39.0366 277.708 39.0165 277.691 38.998C277.643 38.9553 277.582 38.9317 277.519 38.9317C277.455 38.9317 277.394 38.9553 277.347 38.998L276.621 39.7757V38.9596L277.067 38.4794C277.104 38.4389 277.127 38.3876 277.133 38.3328C277.14 38.2781 277.129 38.2227 277.102 38.1746C277.09 38.1534 277.075 38.134 277.057 38.117C277.034 38.0926 277.006 38.0732 276.975 38.06C276.944 38.0467 276.91 38.0399 276.877 38.0399C276.843 38.0399 276.81 38.0467 276.779 38.06C276.748 38.0732 276.72 38.0926 276.696 38.117L276.618 38.201V37.7209C276.618 37.6748 276.606 37.6296 276.585 37.5888C276.557 37.5394 276.514 37.5007 276.462 37.4788C276.41 37.4569 276.352 37.453 276.298 37.4679C276.244 37.4827 276.196 37.5154 276.162 37.5607C276.128 37.6061 276.11 37.6616 276.11 37.7185V38.1986L276.032 38.1146C276.01 38.0894 275.982 38.0693 275.951 38.0557C275.921 38.042 275.888 38.0351 275.854 38.0353C275.787 38.0348 275.722 38.0606 275.674 38.1074C275.65 38.131 275.632 38.1591 275.619 38.19C275.606 38.2208 275.6 38.254 275.6 38.2874C275.6 38.3208 275.606 38.354 275.619 38.3849C275.632 38.4157 275.65 38.4438 275.674 38.4674L276.122 38.9476V39.7613L275.41 39.0052C275.364 38.9558 275.3 38.9272 275.232 38.9256C275.165 38.9241 275.1 38.9497 275.051 38.9968C275.002 39.0439 274.974 39.1087 274.972 39.1769C274.971 39.2451 274.996 39.3111 275.042 39.3605L276.127 40.5055V41.3649L274.888 40.4455C274.861 40.4228 274.83 40.4059 274.797 40.3959C274.763 40.3859 274.728 40.383 274.694 40.3873C274.659 40.3916 274.626 40.4032 274.596 40.4211C274.566 40.4391 274.54 40.4632 274.519 40.4918C274.499 40.5204 274.484 40.553 274.477 40.5875C274.469 40.622 274.469 40.6576 274.476 40.6923C274.483 40.7269 274.496 40.7597 274.516 40.7887C274.536 40.8177 274.562 40.8423 274.592 40.8608L276.129 42.0011V42.582L274.43 41.3457C274.39 41.3159 274.343 41.2986 274.293 41.2961C274.244 41.2936 274.194 41.306 274.152 41.3316C274.109 41.3573 274.075 41.3951 274.054 41.4403C274.032 41.4855 274.025 41.5361 274.031 41.5858L274.269 43.691L273.768 43.403L273.547 41.4825C273.544 41.4494 273.534 41.4174 273.517 41.3889C273.492 41.345 273.454 41.3093 273.41 41.2863C273.365 41.2633 273.315 41.2539 273.265 41.2593C273.199 41.2683 273.138 41.3032 273.097 41.3566C273.056 41.41 273.037 41.4776 273.044 41.545L273.222 43.0861L272.484 42.6612L272.036 41.1393C272.03 41.1199 272.022 41.1013 272.012 41.084C271.983 41.0341 271.939 40.9954 271.886 40.9741C271.833 40.9527 271.775 40.95 271.72 40.9664C271.656 40.9869 271.603 41.0316 271.571 41.0912C271.554 41.121 271.544 41.1537 271.54 41.1875C271.537 41.2213 271.54 41.2555 271.549 41.2881L271.846 42.2915L271.148 41.8858L270.963 41.2593C270.954 41.2266 270.939 41.196 270.918 41.1694C270.897 41.1428 270.871 41.1207 270.842 41.1044C270.812 41.0881 270.78 41.0779 270.747 41.0744C270.713 41.0709 270.68 41.0742 270.647 41.084C270.615 41.0937 270.585 41.1096 270.559 41.1311C270.533 41.1525 270.512 41.1789 270.496 41.2088C270.48 41.2387 270.47 41.2715 270.467 41.3053C270.463 41.3391 270.467 41.3733 270.477 41.4057L270.51 41.5161L270.099 41.2761C270.056 41.2499 270.006 41.2375 269.955 41.2406C269.905 41.2437 269.856 41.2622 269.816 41.2935C269.776 41.3249 269.746 41.3677 269.731 41.4164C269.715 41.4651 269.715 41.5175 269.729 41.5666C269.737 41.5991 269.752 41.6296 269.772 41.6561C269.793 41.6826 269.818 41.7044 269.848 41.7202L270.258 41.9602L270.147 41.9891C270.082 42.0053 270.025 42.0466 269.99 42.1043C269.972 42.1332 269.96 42.1656 269.955 42.1995C269.949 42.2333 269.951 42.2679 269.959 42.3011C269.977 42.3662 270.018 42.422 270.075 42.4569C270.132 42.4918 270.2 42.5031 270.265 42.4884L270.897 42.3299L271.594 42.7356L270.588 42.9757C270.523 42.9917 270.467 43.0331 270.431 43.0909C270.414 43.1197 270.403 43.1518 270.398 43.1852C270.393 43.2186 270.395 43.2527 270.403 43.2854C270.419 43.3512 270.46 43.4081 270.517 43.4438C270.545 43.462 270.577 43.474 270.61 43.479C270.643 43.484 270.677 43.4818 270.709 43.4726L272.233 43.0957L272.968 43.523L271.563 44.1472C271.532 44.1611 271.504 44.1813 271.481 44.2065C271.458 44.2316 271.44 44.2612 271.428 44.2936C271.415 44.3235 271.409 44.3558 271.409 44.3884C271.409 44.421 271.415 44.4533 271.428 44.4832C271.441 44.5148 271.46 44.5434 271.484 44.5674C271.508 44.5913 271.537 44.6101 271.568 44.6225C271.631 44.6476 271.7 44.6476 271.763 44.6225L273.512 43.8447L274.01 44.1327L272.1 45.0017C272.054 45.0227 272.016 45.0566 271.99 45.0992C271.963 45.1419 271.949 45.1914 271.95 45.2418C271.949 45.2926 271.963 45.3426 271.99 45.3854C272.017 45.4281 272.056 45.4617 272.102 45.4819L274.017 46.3388L273.521 46.6317L271.768 45.8659C271.737 45.8525 271.704 45.8452 271.67 45.8447C271.637 45.8442 271.604 45.8503 271.573 45.8628C271.542 45.8753 271.513 45.8939 271.489 45.9175C271.465 45.9411 271.446 45.9693 271.433 46.0004C271.407 46.0629 271.407 46.133 271.432 46.1958C271.457 46.2585 271.505 46.309 271.566 46.3365L272.975 46.951L272.242 47.3831L270.716 47.0158C270.667 47.0041 270.616 47.0072 270.569 47.0248C270.522 47.0425 270.481 47.0738 270.452 47.1149C270.422 47.156 270.406 47.205 270.404 47.2557C270.402 47.3065 270.415 47.3566 270.441 47.3999C270.458 47.4292 270.48 47.4546 270.507 47.4744C270.534 47.4943 270.565 47.5081 270.598 47.5151L271.606 47.7552L270.911 48.1657L270.28 48.012C270.215 47.9981 270.147 48.0103 270.091 48.046C270.035 48.0817 269.995 48.1382 269.98 48.2032C269.964 48.2683 269.975 48.337 270.009 48.3945C270.042 48.4521 270.097 48.494 270.161 48.5114L270.275 48.5402L269.864 48.7802C269.835 48.7965 269.81 48.8188 269.79 48.8457C269.77 48.8726 269.756 48.9034 269.748 48.9362C269.739 48.9687 269.736 49.0028 269.741 49.0363C269.745 49.0698 269.756 49.102 269.774 49.1307C269.791 49.1599 269.813 49.1854 269.84 49.2058C269.866 49.2262 269.896 49.2411 269.929 49.2495C269.961 49.258 269.994 49.26 270.027 49.2552C270.06 49.2505 270.092 49.2392 270.121 49.2219L270.529 48.9819L270.496 49.0947C270.482 49.1436 270.483 49.1954 270.499 49.2436C270.514 49.2918 270.543 49.3345 270.582 49.3661C270.622 49.3978 270.669 49.4172 270.719 49.4219C270.769 49.4265 270.819 49.4163 270.863 49.3924C270.922 49.3592 270.966 49.304 270.984 49.2387L271.165 48.6074L271.86 48.1993L271.571 49.2051C271.56 49.2372 271.557 49.2711 271.561 49.3046C271.564 49.3381 271.575 49.3705 271.592 49.3996C271.608 49.4291 271.63 49.4552 271.656 49.4762C271.682 49.4972 271.712 49.5128 271.744 49.522C271.808 49.5406 271.877 49.533 271.936 49.5006C271.994 49.4683 272.038 49.4138 272.057 49.3491L272.498 47.8248L273.229 47.3927L273.063 48.9362C273.059 48.97 273.061 49.0043 273.07 49.037C273.08 49.0697 273.096 49.1 273.118 49.1259C273.138 49.1528 273.164 49.1751 273.193 49.1912C273.223 49.2073 273.255 49.217 273.289 49.2195C273.355 49.2262 273.422 49.206 273.474 49.1633C273.526 49.1206 273.559 49.0588 273.566 48.9915L273.775 47.071L274.271 46.7806L274.06 48.8882C274.058 48.9359 274.069 48.9833 274.091 49.0255C274.113 49.0677 274.146 49.1032 274.186 49.1283C274.228 49.1532 274.277 49.165 274.327 49.1625C274.376 49.1599 274.423 49.1431 274.463 49.1139L276.153 47.8656V48.4441L274.62 49.5988C274.58 49.6292 274.55 49.6708 274.534 49.7183C274.517 49.7659 274.515 49.8173 274.527 49.8662C274.539 49.915 274.565 49.9592 274.602 49.9932C274.639 50.0272 274.685 50.0495 274.734 50.0573C274.801 50.0671 274.869 50.0498 274.924 50.0093L276.155 49.0827V49.9397L275.076 51.0943C275.041 51.1315 275.019 51.1781 275.011 51.2283C275.002 51.2785 275.009 51.33 275.03 51.3762C275.051 51.4225 275.085 51.4615 275.128 51.4882C275.17 51.515 275.22 51.5283 275.27 51.5264C275.337 51.5246 275.4 51.4961 275.446 51.4472L276.158 50.6839V51.5L275.712 51.9801C275.668 52.0286 275.645 52.0919 275.646 52.1572C275.647 52.2224 275.673 52.2848 275.718 52.3316C275.763 52.3783 275.824 52.406 275.889 52.409C275.953 52.4119 276.016 52.3899 276.065 52.3474L276.16 52.249V52.7291C276.16 52.7972 276.187 52.8626 276.235 52.9108C276.282 52.9589 276.347 52.986 276.414 52.986C276.481 52.9847 276.546 52.9569 276.593 52.9085C276.641 52.8601 276.667 52.7949 276.668 52.7267V52.2466L276.746 52.3306C276.77 52.3547 276.798 52.3739 276.829 52.3869C276.86 52.4 276.893 52.4067 276.927 52.4067C276.96 52.4067 276.993 52.4 277.024 52.3869C277.055 52.3739 277.083 52.3547 277.107 52.3306C277.148 52.2906 277.174 52.2379 277.182 52.1809C277.19 52.1238 277.178 52.0658 277.15 52.0162C277.139 51.999 277.127 51.983 277.114 51.9681L276.666 51.488V50.6742L277.378 51.4304C277.4 51.4553 277.427 51.4752 277.457 51.4888C277.487 51.5025 277.52 51.5096 277.553 51.5096C277.587 51.5105 277.62 51.5046 277.652 51.4922C277.683 51.4798 277.712 51.4613 277.736 51.4376C277.761 51.4151 277.781 51.3874 277.795 51.3563C277.809 51.3253 277.816 51.2916 277.816 51.2576C277.816 51.2235 277.809 51.1899 277.795 51.1588C277.781 51.1278 277.761 51.1001 277.736 51.0775L276.651 49.9301V49.0707L277.888 49.9901C277.943 50.0295 278.01 50.0457 278.077 50.0354C278.143 50.0251 278.203 49.9891 278.244 49.9349C278.273 49.8949 278.289 49.8473 278.292 49.7978C278.294 49.7483 278.283 49.6992 278.258 49.6564C278.24 49.6253 278.217 49.5976 278.189 49.5748L276.649 48.4345V47.8536L278.348 49.0899C278.388 49.1197 278.436 49.1369 278.485 49.1394C278.535 49.142 278.584 49.1296 278.626 49.104C278.669 49.0783 278.703 49.0405 278.725 48.9953C278.746 48.9501 278.754 48.8995 278.747 48.8498L278.524 46.7445L279.022 47.0326L279.24 48.9531C279.243 48.9876 279.253 49.0212 279.27 49.0515C279.287 49.0817 279.31 49.1079 279.338 49.1283C279.363 49.1497 279.393 49.1654 279.425 49.1745C279.457 49.1836 279.49 49.1859 279.523 49.1811C279.556 49.1783 279.589 49.1683 279.618 49.1517C279.648 49.1352 279.674 49.1124 279.694 49.0851C279.711 49.0633 279.724 49.0391 279.734 49.0131H279.76L279.568 47.3567L280.304 47.784L280.752 49.3035C280.762 49.3361 280.777 49.3664 280.799 49.3928C280.82 49.4192 280.846 49.441 280.875 49.4571C280.905 49.4731 280.937 49.4831 280.971 49.4864C281.004 49.4898 281.038 49.4863 281.07 49.4764C281.134 49.4564 281.187 49.4121 281.219 49.353C281.251 49.2938 281.259 49.2244 281.241 49.1595L280.944 48.1537L281.642 48.5594L281.827 49.1883C281.84 49.2393 281.868 49.2851 281.908 49.3194C281.947 49.3537 281.996 49.3749 282.048 49.3802C282.1 49.3854 282.152 49.3744 282.197 49.3487C282.243 49.323 282.279 49.2837 282.302 49.2363C282.311 49.2165 282.319 49.1955 282.323 49.1739H282.359L282.288 48.9339L282.698 49.1739C282.727 49.1912 282.759 49.2024 282.793 49.2069C282.826 49.2114 282.86 49.2092 282.893 49.2003C282.956 49.1817 283.01 49.1386 283.042 49.0803C283.066 49.0431 283.078 49.0002 283.079 48.9561C283.08 48.9121 283.069 48.8687 283.047 48.8306ZM277.992 46.4517L278.194 48.3553L276.659 47.2367V45.6763L277.992 46.4517ZM276.647 43.2277L278.175 42.0971L277.985 44.0031L276.651 44.7857L276.647 43.2277ZM279.969 45.2202L278.244 46.0052L276.905 45.2298L278.239 44.4472L279.969 45.2202ZM274.805 44.0199L274.603 42.1163L276.139 43.2349V44.7953L274.805 44.0199ZM275.892 45.2394L274.558 46.0244L272.826 45.2514L274.554 44.4664L275.892 45.2394ZM276.151 47.2439L274.622 48.3745L274.812 46.4685L276.146 45.6835L276.151 47.2439Z" fill="white"/>
<defs>
<filter id="filter0_g_284_1294" x="232.973" y="12.5631" width="33.4929" height="21.656" filterUnits="userSpaceOnUse" color-interpolation-filters="sRGB">
<feFlood flood-opacity="0" result="BackgroundImageFix"/>
<feBlend mode="normal" in="SourceGraphic" in2="BackgroundImageFix" result="shape"/>
<feTurbulence type="fractalNoise" baseFrequency="6.9816913604736328 6.9816913604736328" numOctaves="3" seed="6010" />
<feDisplacementMap in="shape" scale="2.29170823097229" xChannelSelector="R" yChannelSelector="G" result="displacedImage" width="100%" height="100%" />
<feMerge result="effect1_texture_284_1294">
<feMergeNode in="displacedImage"/>
</feMerge>
</filter>
<filter id="filter1_g_284_1294" x="265.706" y="13.6071" width="8.0212" height="8.0212" filterUnits="userSpaceOnUse" color-interpolation-filters="sRGB">
<feFlood flood-opacity="0" result="BackgroundImageFix"/>
<feBlend mode="normal" in="SourceGraphic" in2="BackgroundImageFix" result="shape"/>
<feTurbulence type="fractalNoise" baseFrequency="6.9816913604736328 6.9816913604736328" numOctaves="3" seed="6010" />
<feDisplacementMap in="shape" scale="2.29170823097229" xChannelSelector="R" yChannelSelector="G" result="displacedImage" width="100%" height="100%" />
<feMerge result="effect1_texture_284_1294">
<feMergeNode in="displacedImage"/>
</feMerge>
</filter>
<linearGradient id="paint0_linear_284_1294" x1="259.406" y1="12.1752" x2="251.671" y2="7.16212" gradientUnits="userSpaceOnUse">
<stop stop-color="#B12424"/>
<stop offset="1" stop-color="#F43131"/>
</linearGradient>
</defs>
</svg>
