<svg width="36" height="36" viewBox="0 0 36 36" fill="none" xmlns="http://www.w3.org/2000/svg">
<g clip-path="url(#clip0_288_1321)">
<rect width="36" height="36" rx="8" fill="black"/>
<path d="M21.3036 15.0593L11.9472 24.4156C11.5244 24.8384 11.822 25.5666 12.4249 25.5666H30.9496C31.5447 25.5666 31.85 24.8462 31.4272 24.4234L22.2588 15.0671C22.0004 14.8009 21.5698 14.8009 21.3036 15.0593Z" fill="#D3F702"/>
<path d="M13.7821 19.6973H5.57182C5.05998 19.6973 4.80405 19.0679 5.17756 18.7151L13.8098 10.3803C14.0588 10.1382 14.3908 9.99988 14.7436 9.99988H22.9262C23.4104 9.99988 23.6525 10.5878 23.3066 10.9267L14.9787 19.1993C14.6606 19.5175 14.2317 19.6973 13.7821 19.6973Z" fill="#D3F702"/>
</g>
<defs>
<clipPath id="clip0_288_1321">
<rect width="36" height="36" rx="8" fill="white"/>
</clipPath>
</defs>
</svg>
