<svg width="338" height="338" viewBox="0 0 338 338" fill="none" xmlns="http://www.w3.org/2000/svg">
<path d="M155.135 277.859L167.238 255.106L157.515 226.867V209.883L187.247 227.068V244.254L174.459 266.402C174.26 266.737 173.965 267.004 173.612 267.168L155.135 277.859Z" fill="#4EB541"/>
<path opacity="0.3" d="M155.135 277.859L167.238 255.106L157.515 226.867V209.883L187.247 227.068V244.254L174.459 266.402C174.26 266.737 173.965 267.004 173.612 267.168L155.135 277.859Z" fill="black"/>
<path d="M126.835 62.4785C129.86 62.4786 132.841 63.195 135.536 64.5693L226.034 116.554C228.557 118.206 230.657 120.428 232.165 123.041C233.672 125.653 234.545 128.582 234.713 131.593V254.166C234.551 257.178 233.681 260.109 232.173 262.722C230.665 265.335 228.562 267.555 226.035 269.203L218.768 273.219C216.079 274.595 213.101 275.313 210.081 275.313C207.062 275.313 204.087 274.596 201.4 273.222L168.818 254.472L168.385 254.223L168.135 254.655L155.393 276.753C155.253 276.984 155.052 277.171 154.811 277.292C154.57 277.413 154.3 277.464 154.032 277.439C153.83 277.421 153.635 277.36 153.46 277.262L153.292 277.15C153.132 277.028 153 276.873 152.904 276.697L152.82 276.514L139.309 237.556L139.248 237.378L139.085 237.285L110.863 221.158C108.335 219.51 106.231 217.289 104.722 214.675C103.215 212.062 102.344 209.13 102.182 206.118L102.221 83.626C102.39 80.6156 103.264 77.6869 104.771 75.0752C106.278 72.4627 108.378 70.2397 110.901 68.5869L118.142 64.5654C120.834 63.1935 123.814 62.4785 126.835 62.4785Z" fill="url(#paint0_linear_8194_8687)" stroke="url(#paint1_linear_8194_8687)"/>
<path opacity="0.3" d="M235.213 254.179C235.049 257.274 234.155 260.287 232.606 262.972C231.057 265.657 228.896 267.938 226.298 269.63L218.996 273.664C216.506 274.904 213.784 275.61 211.005 275.735C208.225 275.86 205.451 275.402 202.859 274.39C206.894 275.963 210.242 273.623 210.242 268.5V146.062C210.139 142.96 209.251 139.934 207.66 137.268L232.753 122.785C234.361 125.446 235.263 128.473 235.375 131.58L235.213 254.179Z" fill="url(#paint2_linear_8194_8687)"/>
<path d="M102.005 81.0721C103.054 77.28 106.523 76.0697 110.638 78.4499L201.165 130.652C203.814 132.276 205.986 134.573 207.459 137.309L232.551 122.826C231.067 120.088 228.899 117.78 226.258 116.129L135.771 63.9672C132.998 62.576 129.938 61.8516 126.835 61.8516C123.733 61.8516 120.673 62.576 117.9 63.9672L110.638 68.0013C108.386 69.4786 106.459 71.3997 104.975 73.6471C103.49 75.8944 102.48 78.4209 102.005 81.0721Z" fill="url(#paint3_linear_8194_8687)"/>
<path d="M143.234 214.966C142.872 215.006 142.507 215.006 142.145 214.966C140.811 214.784 139.544 214.272 138.459 213.476C137.374 212.68 136.505 211.625 135.932 210.407L119.796 176.278C119.322 175.316 119.044 174.27 118.98 173.199C118.915 172.129 119.064 171.056 119.419 170.045C119.773 169.033 120.326 168.101 121.045 167.306C121.763 166.51 122.633 165.865 123.604 165.409C124.574 164.953 125.626 164.696 126.697 164.651C127.768 164.606 128.838 164.776 129.843 165.149C130.848 165.522 131.769 166.093 132.551 166.826C133.334 167.559 133.962 168.441 134.399 169.42L145.171 192.294L182.204 149.168C182.842 148.219 183.673 147.417 184.644 146.813C185.615 146.21 186.702 145.82 187.835 145.669C188.968 145.517 190.12 145.609 191.215 145.936C192.31 146.264 193.323 146.82 194.187 147.569C195.051 148.317 195.746 149.241 196.226 150.278C196.705 151.316 196.96 152.443 196.971 153.586C196.982 154.729 196.751 155.861 196.291 156.908C195.832 157.955 195.156 158.892 194.307 159.657L149.164 212.102C148.433 212.969 147.527 213.673 146.505 214.166C145.483 214.66 144.368 214.932 143.234 214.966Z" fill="#1C1F24"/>
<circle cx="168.528" cy="169.963" r="141.59" transform="rotate(-180 168.528 169.963)" stroke="url(#paint4_linear_8194_8687)" stroke-width="0.5"/>
<circle cx="168.528" cy="168.528" r="168.278" stroke="url(#paint5_linear_8194_8687)" stroke-width="0.5"/>
<circle cx="182.03" cy="29.4585" r="3.25928" fill="#D3F702"/>
<circle cx="16.5347" cy="240.611" r="3.25928" fill="#D3F702"/>
<circle cx="256.83" cy="312.283" r="1.6499" fill="#D3F702"/>
<path d="M232.551 93L233.16 109.417C233.532 119.46 241.596 127.515 251.645 127.882L268.551 128.5L251.645 129.118C241.596 129.485 233.532 137.54 233.16 147.583L232.551 164L231.942 147.583C231.57 137.54 223.506 129.485 213.457 129.118L196.551 128.5L213.457 127.882C223.506 127.515 231.57 119.46 231.942 109.417L232.551 93Z" fill="white"/>
<defs>
<linearGradient id="paint0_linear_8194_8687" x1="73.0283" y1="62" x2="168.448" y2="277.946" gradientUnits="userSpaceOnUse">
<stop stop-color="#4EE53B"/>
<stop offset="1" stop-color="#2E6827"/>
</linearGradient>
<linearGradient id="paint1_linear_8194_8687" x1="101.528" y1="227" x2="155.528" y2="210" gradientUnits="userSpaceOnUse">
<stop stop-color="white" stop-opacity="0.4"/>
<stop offset="1" stop-color="white" stop-opacity="0"/>
</linearGradient>
<linearGradient id="paint2_linear_8194_8687" x1="219.117" y1="122.785" x2="219.117" y2="275.755" gradientUnits="userSpaceOnUse">
<stop stop-opacity="0"/>
<stop offset="1"/>
</linearGradient>
<linearGradient id="paint3_linear_8194_8687" x1="64.0283" y1="52.9955" x2="209.528" y2="137" gradientUnits="userSpaceOnUse">
<stop stop-color="white" stop-opacity="0.7"/>
<stop offset="1" stop-color="white" stop-opacity="0"/>
</linearGradient>
<linearGradient id="paint4_linear_8194_8687" x1="56.1676" y1="58.5264" x2="168.528" y2="311.803" gradientUnits="userSpaceOnUse">
<stop stop-color="white" stop-opacity="0.3"/>
<stop offset="1" stop-color="white" stop-opacity="0"/>
</linearGradient>
<linearGradient id="paint5_linear_8194_8687" x1="244.045" y1="15.0732" x2="175.882" y2="367.524" gradientUnits="userSpaceOnUse">
<stop stop-color="white" stop-opacity="0.3"/>
<stop offset="1" stop-color="white" stop-opacity="0"/>
</linearGradient>
</defs>
</svg>
