<svg width="226" height="173" viewBox="0 0 226 173" fill="none" xmlns="http://www.w3.org/2000/svg">
<path opacity="0.17" d="M592.676 676.74L0.000976563 676.74L0.000976563 675.684L592.676 675.684V676.74ZM592.676 587.998L0.000976563 587.998L0.000976563 586.941L592.676 586.941V587.998ZM592.676 499.256L0.000976563 499.256L0.000976563 498.199L592.676 498.199V499.256ZM592.676 -123V-121.943H533.514V-34.2578H592.676V-33.2012H533.514V54.4883L592.676 54.4883V55.5449L533.514 55.5449V143.227H592.676V144.283H533.514V231.973H592.676V233.029H533.514V320.715H592.676V321.771H533.514L533.514 409.457H592.676V410.514H533.514V469.675H532.457V410.514L444.771 410.514V469.675H443.715V410.514H356.029V469.675H354.973V410.514H267.285V469.675H266.229V410.514H178.543L178.543 469.675H177.486L177.486 410.514H89.7988V469.675H88.7422V410.514H1.05664L1.05664 469.675H0L0 -123L592.676 -123ZM622.256 469.675H621.199L621.199 -123H622.256L622.256 469.675ZM710.998 469.675H709.941L709.941 -123H710.998L710.998 469.675ZM799.742 469.675H798.686L798.686 -123H799.742L799.742 469.675ZM1.05664 321.771L1.05664 409.457H88.7422L88.7422 321.771H1.05664ZM89.7988 321.771L89.7988 409.457H177.486V321.771H89.7988ZM178.543 321.771V409.457H266.229V321.771L178.543 321.771ZM267.285 321.771V409.457H354.973V321.771H267.285ZM356.029 321.771V409.457H443.715V321.771H356.029ZM444.771 321.771V409.457L532.457 409.457L532.457 321.771H444.771ZM1.05664 233.029L1.05664 320.715H88.7422L88.7422 233.029H1.05664ZM89.7988 233.029L89.7988 320.715H177.486V233.029H89.7988ZM178.543 233.029V320.715L266.229 320.715V233.029L178.543 233.029ZM267.285 233.029V320.715H354.973V233.029H267.285ZM356.029 233.029V320.715H443.715V233.029H356.029ZM444.771 233.029V320.715H532.457V233.029H444.771ZM1.05664 144.283L1.05664 231.973H88.7422L88.7422 144.283H1.05664ZM89.7988 144.283L89.7988 231.973H177.486L177.486 144.283H89.7988ZM178.543 144.283L178.543 231.973L266.229 231.973V144.283L178.543 144.283ZM267.285 144.283V231.973H354.973V144.283H267.285ZM356.029 144.283V231.973H443.715V144.283H356.029ZM444.771 144.283V231.973H532.457V144.283H444.771ZM1.05664 55.5449L1.05664 143.227H88.7422V55.5449H1.05664ZM89.7988 55.5449V143.227H177.486V55.5449L89.7988 55.5449ZM178.543 55.5449V143.227L266.229 143.227L266.229 55.5449H178.543ZM267.285 55.5449L267.285 143.227H354.973L354.973 55.5449L267.285 55.5449ZM356.029 55.5449L356.029 143.227H443.715L443.715 55.5449H356.029ZM444.771 55.5449L444.771 143.227H532.457V55.5449H444.771ZM1.05664 -33.2012L1.05664 54.4883H88.7422L88.7422 -33.2012L1.05664 -33.2012ZM89.7988 -33.2012L89.7988 54.4883L177.486 54.4883L177.486 -33.2012L89.7988 -33.2012ZM178.543 -33.2012L178.543 54.4883H266.229V-33.2012H178.543ZM267.285 -33.2012V54.4883L354.973 54.4883V-33.2012L267.285 -33.2012ZM356.029 -33.2012V54.4883H443.715V-33.2012L356.029 -33.2012ZM444.771 -33.2012V54.4883H532.457V-33.2012L444.771 -33.2012ZM1.05664 -121.943L1.05664 -34.2578L88.7422 -34.2578L88.7422 -121.943L1.05664 -121.943ZM89.7988 -121.943L89.7988 -34.2578L177.486 -34.2578V-121.943L89.7988 -121.943ZM178.543 -121.943V-34.2578H266.229V-121.943H178.543ZM267.285 -121.943V-34.2578L354.973 -34.2578V-121.943L267.285 -121.943ZM356.029 -121.943V-34.2578L443.715 -34.2578V-121.943L356.029 -121.943ZM444.771 -121.943V-34.2578L532.457 -34.2578V-121.943L444.771 -121.943Z" fill="url(#paint0_linear_7485_9059)"/>
<defs>
<linearGradient id="paint0_linear_7485_9059" x1="369.742" y1="-100.258" x2="21.5" y2="141" gradientUnits="userSpaceOnUse">
<stop stop-color="white" stop-opacity="0"/>
<stop offset="0.463566" stop-color="white" stop-opacity="0.567904"/>
<stop offset="1" stop-color="white" stop-opacity="0"/>
</linearGradient>
</defs>
</svg>
