<svg width="16" height="16" viewBox="0 0 16 16" fill="none" xmlns="http://www.w3.org/2000/svg">
<path d="M2.9876 11.825C3.6251 11.3375 4.3376 10.9531 5.1251 10.6719C5.9126 10.3906 6.7376 10.25 7.6001 10.25C8.4626 10.25 9.2876 10.3906 10.0751 10.6719C10.8626 10.9531 11.5751 11.3375 12.2126 11.825C12.6501 11.3125 12.9907 10.7313 13.2345 10.0813C13.4782 9.43125 13.6001 8.7375 13.6001 8C13.6001 6.3375 13.0157 4.92188 11.847 3.75313C10.6782 2.58438 9.2626 2 7.6001 2C5.9376 2 4.52197 2.58438 3.35322 3.75313C2.18447 4.92188 1.6001 6.3375 1.6001 8C1.6001 8.7375 1.72197 9.43125 1.96572 10.0813C2.20947 10.7313 2.5501 11.3125 2.9876 11.825ZM7.6001 8.75C6.8626 8.75 6.24072 8.49688 5.73447 7.99063C5.22822 7.48438 4.9751 6.8625 4.9751 6.125C4.9751 5.3875 5.22822 4.76562 5.73447 4.25938C6.24072 3.75313 6.8626 3.5 7.6001 3.5C8.3376 3.5 8.95947 3.75313 9.46572 4.25938C9.97197 4.76562 10.2251 5.3875 10.2251 6.125C10.2251 6.8625 9.97197 7.48438 9.46572 7.99063C8.95947 8.49688 8.3376 8.75 7.6001 8.75ZM7.6001 15.5C6.5626 15.5 5.5876 15.3031 4.6751 14.9094C3.7626 14.5156 2.96885 13.9813 2.29385 13.3063C1.61885 12.6313 1.08447 11.8375 0.690723 10.925C0.296973 10.0125 0.100098 9.0375 0.100098 8C0.100098 6.9625 0.296973 5.9875 0.690723 5.075C1.08447 4.1625 1.61885 3.36875 2.29385 2.69375C2.96885 2.01875 3.7626 1.48438 4.6751 1.09063C5.5876 0.696875 6.5626 0.5 7.6001 0.5C8.6376 0.5 9.6126 0.696875 10.5251 1.09063C11.4376 1.48438 12.2313 2.01875 12.9063 2.69375C13.5813 3.36875 14.1157 4.1625 14.5095 5.075C14.9032 5.9875 15.1001 6.9625 15.1001 8C15.1001 9.0375 14.9032 10.0125 14.5095 10.925C14.1157 11.8375 13.5813 12.6313 12.9063 13.3063C12.2313 13.9813 11.4376 14.5156 10.5251 14.9094C9.6126 15.3031 8.6376 15.5 7.6001 15.5Z" fill="#FF90E8"/>
</svg>
