<svg preserveAspectRatio="none" width="100%" height="100%" overflow="visible" style="display: block;" viewBox="0 0 507.975 297" fill="none" xmlns="http://www.w3.org/2000/svg">
<path id="Union" fill-rule="evenodd" clip-rule="evenodd" d="M10.9102 185.022H167.559C176.137 185.022 184.319 181.591 190.39 175.521L349.282 17.684C355.881 11.2175 351.262 0 342.024 0H185.903C179.172 0 172.838 2.63941 168.087 7.25837L3.38784 166.283C-3.73856 173.013 1.14435 185.022 10.9102 185.022ZM132.555 275.04L311.07 96.5256C316.149 91.5959 324.365 91.5959 329.295 96.675L504.224 275.19C512.291 283.257 506.465 297 495.112 297H141.667C130.165 297 124.488 283.107 132.555 275.04Z" fill="url(#paint0_linear_0_13)" fill-opacity="0.15"/>
<defs>
<linearGradient id="paint0_linear_0_13" x1="253.987" y1="0" x2="253.987" y2="297" gradientUnits="userSpaceOnUse">
<stop stop-color="#596801"/>
<stop offset="1" stop-color="#F1FDB1"/>
</linearGradient>
</defs>
</svg>
