<svg preserveAspectRatio="none" width="100%" height="100%" overflow="visible" style="display: block;" viewBox="0 0 314.706 184.001" fill="none" xmlns="http://www.w3.org/2000/svg">
<path id="Union" fill-rule="evenodd" clip-rule="evenodd" d="M6.75918 114.627H103.808C109.122 114.627 114.192 112.501 117.952 108.74L216.391 10.9558C220.479 6.94958 217.618 0 211.895 0H115.173C111.003 0 107.078 1.6352 104.135 4.49679L2.09887 103.017C-2.31615 107.187 0.708958 114.627 6.75918 114.627ZM82.1219 170.396L192.717 59.8006C195.864 56.7465 200.954 56.7465 204.008 59.8932L312.383 170.489C317.38 175.486 313.771 184.001 306.737 184.001H87.7673C80.6411 184.001 77.1243 175.394 82.1219 170.396Z" fill="url(#paint0_linear_0_10)" fill-opacity="0.15"/>
<defs>
<linearGradient id="paint0_linear_0_10" x1="157.353" y1="0" x2="157.353" y2="184.001" gradientUnits="userSpaceOnUse">
<stop stop-color="#B51E39"/>
<stop offset="1" stop-color="white" stop-opacity="0.32"/>
</linearGradient>
</defs>
</svg>
