<svg width="353" height="249" viewBox="0 0 353 249" fill="none" xmlns="http://www.w3.org/2000/svg">
<path fill-rule="evenodd" clip-rule="evenodd" d="M11.2759 155.022H167.925C176.503 155.022 184.685 151.591 190.756 145.521L349.648 -12.316C356.246 -18.7825 351.628 -30 342.39 -30H186.269C179.538 -30 173.204 -27.3606 168.453 -22.7416L3.75356 136.283C-3.37284 143.013 1.51007 155.022 11.2759 155.022ZM132.921 245.04L311.436 66.5256C316.515 61.5959 324.731 61.5959 329.66 66.675L504.59 245.19C512.657 253.257 506.831 267 495.478 267H142.033C130.53 267 124.854 253.107 132.921 245.04Z" fill="url(#paint0_linear_3623_9111)" fill-opacity="0.15"/>
<defs>
<linearGradient id="paint0_linear_3623_9111" x1="254.353" y1="-30" x2="254.353" y2="267" gradientUnits="userSpaceOnUse">
<stop stop-color="#596801"/>
<stop offset="1" stop-color="#F1FDB1"/>
</linearGradient>
</defs>
</svg>
