<svg width="16" height="16" viewBox="0 0 16 16" fill="none" xmlns="http://www.w3.org/2000/svg">
<path d="M8.65029 15.4252L7.60029 14.3752L10.2628 11.7127L3.88779 5.3377L1.22529 8.0002L0.175293 6.9502L1.22529 5.8627L0.175293 4.8127L1.75029 3.2377L0.700293 2.1502L1.75029 1.1002L2.83779 2.1502L4.41279 0.575195L5.46279 1.6252L6.55029 0.575195L7.60029 1.6252L4.93779 4.2877L11.3128 10.6627L13.9753 8.0002L15.0253 9.0502L13.9753 10.1377L15.0253 11.1877L13.4503 12.7627L14.5003 13.8502L13.4503 14.9002L12.3628 13.8502L10.7878 15.4252L9.73779 14.3752L8.65029 15.4252Z" fill="#90A8ED"/>
</svg>
