<svg width="32" height="32" viewBox="0 0 32 32" fill="none" xmlns="http://www.w3.org/2000/svg">
<circle cx="16" cy="16" r="16" fill="#E1AE72"/>
<g clip-path="url(#clip0_4737_5209)">
<path d="M20.75 17.0312H19.6875V18.0938H20.75V17.0312Z" fill="black"/>
<path d="M22.875 12.25H10.125V10.6562H21.8125V9.59375H10.125C9.84321 9.59375 9.57296 9.70569 9.3737 9.90495C9.17444 10.1042 9.0625 10.3745 9.0625 10.6562V21.8125C9.0625 22.0943 9.17444 22.3645 9.3737 22.5638C9.57296 22.7631 9.84321 22.875 10.125 22.875H22.875C23.1568 22.875 23.427 22.7631 23.6263 22.5638C23.8256 22.3645 23.9375 22.0943 23.9375 21.8125V13.3125C23.9375 13.0307 23.8256 12.7605 23.6263 12.5612C23.427 12.3619 23.1568 12.25 22.875 12.25ZM10.125 21.8125V13.3125H22.875V14.9062H18.625C18.3432 14.9062 18.073 15.0182 17.8737 15.2174C17.6744 15.4167 17.5625 15.687 17.5625 15.9688V19.1562C17.5625 19.438 17.6744 19.7083 17.8737 19.9076C18.073 20.1068 18.3432 20.2188 18.625 20.2188H22.875V21.8125H10.125ZM22.875 15.9688V19.1562H18.625V15.9688H22.875Z" fill="black"/>
</g>
<defs>
<clipPath id="clip0_4737_5209">
<rect width="17" height="17" fill="white" transform="translate(8 8)"/>
</clipPath>
</defs>
</svg>
